<svg xmlns="http://www.w3.org/2000/svg" viewBox="0 0 405.12 510.24"><defs><style>.cls-1{fill:#fff;}</style></defs><g id="Layer_2" data-name="Layer 2"><g id="Layer_1-2" data-name="Layer 1"><path class="cls-1" d="M405.12,21.26,387.61,0H68.71L86.22,21.26,24.37,372l-3.75,21.23L0,510.24H63.78l25-21.26,16.81-95.37,3.81-21.56,18.74-106.3,25-21.26H131.9L171.26,21.26h31.89L141.28,372.13l-3.73,21.16L120.68,489l-25,21.26h202l25-21.26,16.86-95.63L343.28,372l16.85-95.6-17.51-21.26,25-21.26Zm-85,0L280.72,244.49H248.83L288.19,21.26ZM205.72,489l16.88-95.76L226.34,372l18.74-106.28H277L258.23,372l-3.72,21.12L237.61,489Z"/></g></g></svg>